<mxfile host="Electron" modified="2023-10-23T07:08:38.919Z" agent="Mozilla/5.0 (Windows NT 10.0; Win64; x64) AppleWebKit/537.36 (KHTML, like Gecko) draw.io/22.0.2 Chrome/114.0.5735.289 Electron/25.8.4 Safari/537.36" etag="tpAm5GFBCN217YGT5EKz" version="22.0.2" type="device">
  <diagram id="Fqjd-lwi6O4fydthMyqD" name="Page-1">
    <mxGraphModel dx="1419" dy="961" grid="1" gridSize="10" guides="1" tooltips="1" connect="1" arrows="1" fold="1" page="1" pageScale="1" pageWidth="827" pageHeight="1169" math="0" shadow="0">
      <root>
        <mxCell id="0" />
        <mxCell id="1" parent="0" />
        <mxCell id="5Vz4BSwYyrw7bR7G8Iut-1" value="Обработка заказов в онлайн маркетплейсе" style="swimlane;horizontal=0;whiteSpace=wrap;html=1;" parent="1" vertex="1">
          <mxGeometry x="10" y="680" width="1190" height="1000" as="geometry" />
        </mxCell>
        <mxCell id="5Vz4BSwYyrw7bR7G8Iut-3" value="Менеджер по продажам" style="swimlane;horizontal=0;whiteSpace=wrap;html=1;" parent="5Vz4BSwYyrw7bR7G8Iut-1" vertex="1">
          <mxGeometry x="20" y="200" width="1170" height="200" as="geometry" />
        </mxCell>
        <mxCell id="5Vz4BSwYyrw7bR7G8Iut-12" value="Обработка заказа" style="rounded=1;whiteSpace=wrap;html=1;" parent="5Vz4BSwYyrw7bR7G8Iut-3" vertex="1">
          <mxGeometry x="345" y="100" width="120" height="60" as="geometry" />
        </mxCell>
        <mxCell id="5Vz4BSwYyrw7bR7G8Iut-18" style="edgeStyle=orthogonalEdgeStyle;rounded=0;orthogonalLoop=1;jettySize=auto;html=1;exitX=0.5;exitY=1;exitDx=0;exitDy=0;entryX=0.5;entryY=0;entryDx=0;entryDy=0;" parent="5Vz4BSwYyrw7bR7G8Iut-3" source="5Vz4BSwYyrw7bR7G8Iut-17" target="5Vz4BSwYyrw7bR7G8Iut-12" edge="1">
          <mxGeometry relative="1" as="geometry" />
        </mxCell>
        <mxCell id="5Vz4BSwYyrw7bR7G8Iut-17" value="" style="rhombus;whiteSpace=wrap;html=1;" parent="5Vz4BSwYyrw7bR7G8Iut-3" vertex="1">
          <mxGeometry x="377.5" y="20" width="55" height="55" as="geometry" />
        </mxCell>
        <mxCell id="5Vz4BSwYyrw7bR7G8Iut-4" value="Курьер" style="swimlane;horizontal=0;whiteSpace=wrap;html=1;" parent="5Vz4BSwYyrw7bR7G8Iut-1" vertex="1">
          <mxGeometry x="20" y="400" width="1170" height="200" as="geometry" />
        </mxCell>
        <mxCell id="5Vz4BSwYyrw7bR7G8Iut-21" value="Подготовка товаров" style="rounded=1;whiteSpace=wrap;html=1;" parent="5Vz4BSwYyrw7bR7G8Iut-4" vertex="1">
          <mxGeometry x="500" y="60" width="120" height="60" as="geometry" />
        </mxCell>
        <mxCell id="5Vz4BSwYyrw7bR7G8Iut-23" value="Доставка заказа" style="rounded=1;whiteSpace=wrap;html=1;" parent="5Vz4BSwYyrw7bR7G8Iut-4" vertex="1">
          <mxGeometry x="910" y="60" width="120" height="60" as="geometry" />
        </mxCell>
        <mxCell id="5Vz4BSwYyrw7bR7G8Iut-5" value="Работник финансового отдела" style="swimlane;horizontal=0;whiteSpace=wrap;html=1;" parent="5Vz4BSwYyrw7bR7G8Iut-1" vertex="1">
          <mxGeometry x="20" y="600" width="1170" height="200" as="geometry" />
        </mxCell>
        <mxCell id="5Vz4BSwYyrw7bR7G8Iut-29" value="Выставление счёта" style="rounded=1;whiteSpace=wrap;html=1;" parent="5Vz4BSwYyrw7bR7G8Iut-5" vertex="1">
          <mxGeometry x="730" y="70" width="120" height="60" as="geometry" />
        </mxCell>
        <mxCell id="5Vz4BSwYyrw7bR7G8Iut-6" value="Работник склада" style="swimlane;horizontal=0;whiteSpace=wrap;html=1;" parent="5Vz4BSwYyrw7bR7G8Iut-1" vertex="1">
          <mxGeometry x="20" y="800" width="1170" height="200" as="geometry" />
        </mxCell>
        <mxCell id="5Vz4BSwYyrw7bR7G8Iut-11" value="Товар есть в наличии?" style="rhombus;whiteSpace=wrap;html=1;" parent="5Vz4BSwYyrw7bR7G8Iut-6" vertex="1">
          <mxGeometry x="330" y="100" width="80" height="80" as="geometry" />
        </mxCell>
        <mxCell id="CggY8DjCSY8ziIy-QMqM-3" style="edgeStyle=orthogonalEdgeStyle;rounded=0;orthogonalLoop=1;jettySize=auto;html=1;exitX=0.5;exitY=1;exitDx=0;exitDy=0;entryX=0.5;entryY=0;entryDx=0;entryDy=0;" edge="1" parent="5Vz4BSwYyrw7bR7G8Iut-6" source="CggY8DjCSY8ziIy-QMqM-2" target="5Vz4BSwYyrw7bR7G8Iut-11">
          <mxGeometry relative="1" as="geometry" />
        </mxCell>
        <mxCell id="CggY8DjCSY8ziIy-QMqM-2" value="Проверка наличия товара" style="rounded=1;whiteSpace=wrap;html=1;" vertex="1" parent="5Vz4BSwYyrw7bR7G8Iut-6">
          <mxGeometry x="310" y="20" width="120" height="60" as="geometry" />
        </mxCell>
        <mxCell id="5Vz4BSwYyrw7bR7G8Iut-14" style="edgeStyle=orthogonalEdgeStyle;rounded=0;orthogonalLoop=1;jettySize=auto;html=1;exitX=0.5;exitY=1;exitDx=0;exitDy=0;entryX=0.5;entryY=0;entryDx=0;entryDy=0;" parent="5Vz4BSwYyrw7bR7G8Iut-1" source="5Vz4BSwYyrw7bR7G8Iut-12" target="CggY8DjCSY8ziIy-QMqM-2" edge="1">
          <mxGeometry relative="1" as="geometry">
            <mxPoint x="390" y="820" as="targetPoint" />
          </mxGeometry>
        </mxCell>
        <mxCell id="5Vz4BSwYyrw7bR7G8Iut-19" value="Нет" style="edgeStyle=orthogonalEdgeStyle;rounded=0;orthogonalLoop=1;jettySize=auto;html=1;exitX=0;exitY=0.5;exitDx=0;exitDy=0;entryX=0;entryY=0.5;entryDx=0;entryDy=0;" parent="5Vz4BSwYyrw7bR7G8Iut-1" source="5Vz4BSwYyrw7bR7G8Iut-11" target="5Vz4BSwYyrw7bR7G8Iut-17" edge="1">
          <mxGeometry relative="1" as="geometry">
            <Array as="points">
              <mxPoint x="280" y="940" />
              <mxPoint x="280" y="247" />
            </Array>
          </mxGeometry>
        </mxCell>
        <mxCell id="5Vz4BSwYyrw7bR7G8Iut-22" value="Да" style="edgeStyle=orthogonalEdgeStyle;rounded=0;orthogonalLoop=1;jettySize=auto;html=1;exitX=1;exitY=0.5;exitDx=0;exitDy=0;entryX=0;entryY=0.5;entryDx=0;entryDy=0;" parent="5Vz4BSwYyrw7bR7G8Iut-1" source="5Vz4BSwYyrw7bR7G8Iut-11" target="5Vz4BSwYyrw7bR7G8Iut-21" edge="1">
          <mxGeometry relative="1" as="geometry" />
        </mxCell>
        <mxCell id="CggY8DjCSY8ziIy-QMqM-4" style="edgeStyle=orthogonalEdgeStyle;rounded=0;orthogonalLoop=1;jettySize=auto;html=1;exitX=1;exitY=0.5;exitDx=0;exitDy=0;entryX=0;entryY=0.5;entryDx=0;entryDy=0;" edge="1" parent="5Vz4BSwYyrw7bR7G8Iut-1" source="5Vz4BSwYyrw7bR7G8Iut-21" target="5Vz4BSwYyrw7bR7G8Iut-29">
          <mxGeometry relative="1" as="geometry" />
        </mxCell>
        <mxCell id="CggY8DjCSY8ziIy-QMqM-5" style="edgeStyle=orthogonalEdgeStyle;rounded=0;orthogonalLoop=1;jettySize=auto;html=1;exitX=1;exitY=0.5;exitDx=0;exitDy=0;entryX=0;entryY=0.5;entryDx=0;entryDy=0;" edge="1" parent="5Vz4BSwYyrw7bR7G8Iut-1" source="5Vz4BSwYyrw7bR7G8Iut-29" target="5Vz4BSwYyrw7bR7G8Iut-23">
          <mxGeometry relative="1" as="geometry" />
        </mxCell>
        <mxCell id="5Vz4BSwYyrw7bR7G8Iut-2" value="Клиент" style="swimlane;horizontal=0;whiteSpace=wrap;html=1;" parent="1" vertex="1">
          <mxGeometry x="30" y="680" width="1170" height="200" as="geometry" />
        </mxCell>
        <mxCell id="5Vz4BSwYyrw7bR7G8Iut-10" style="edgeStyle=orthogonalEdgeStyle;rounded=0;orthogonalLoop=1;jettySize=auto;html=1;exitX=1;exitY=0.5;exitDx=0;exitDy=0;entryX=0;entryY=0.5;entryDx=0;entryDy=0;" parent="5Vz4BSwYyrw7bR7G8Iut-2" source="5Vz4BSwYyrw7bR7G8Iut-7" target="5Vz4BSwYyrw7bR7G8Iut-9" edge="1">
          <mxGeometry relative="1" as="geometry" />
        </mxCell>
        <mxCell id="5Vz4BSwYyrw7bR7G8Iut-7" value="" style="ellipse;whiteSpace=wrap;html=1;aspect=fixed;" parent="5Vz4BSwYyrw7bR7G8Iut-2" vertex="1">
          <mxGeometry x="50" y="60" width="80" height="80" as="geometry" />
        </mxCell>
        <mxCell id="5Vz4BSwYyrw7bR7G8Iut-9" value="Размещение заказа" style="rounded=1;whiteSpace=wrap;html=1;" parent="5Vz4BSwYyrw7bR7G8Iut-2" vertex="1">
          <mxGeometry x="210" y="70" width="120" height="60" as="geometry" />
        </mxCell>
        <mxCell id="5Vz4BSwYyrw7bR7G8Iut-8" value="" style="ellipse;whiteSpace=wrap;html=1;aspect=fixed;" parent="5Vz4BSwYyrw7bR7G8Iut-2" vertex="1">
          <mxGeometry x="1070" y="60" width="80" height="80" as="geometry" />
        </mxCell>
        <mxCell id="5Vz4BSwYyrw7bR7G8Iut-20" style="edgeStyle=orthogonalEdgeStyle;rounded=0;orthogonalLoop=1;jettySize=auto;html=1;exitX=1;exitY=0.5;exitDx=0;exitDy=0;entryX=0.5;entryY=0;entryDx=0;entryDy=0;" parent="1" source="5Vz4BSwYyrw7bR7G8Iut-9" target="5Vz4BSwYyrw7bR7G8Iut-17" edge="1">
          <mxGeometry relative="1" as="geometry" />
        </mxCell>
        <mxCell id="CggY8DjCSY8ziIy-QMqM-1" value="Заказ создан" style="text;html=1;align=center;verticalAlign=middle;resizable=0;points=[];autosize=1;strokeColor=none;fillColor=none;" vertex="1" parent="1">
          <mxGeometry x="70" y="828" width="100" height="30" as="geometry" />
        </mxCell>
        <mxCell id="CggY8DjCSY8ziIy-QMqM-6" style="edgeStyle=orthogonalEdgeStyle;rounded=0;orthogonalLoop=1;jettySize=auto;html=1;exitX=1;exitY=0.5;exitDx=0;exitDy=0;entryX=0;entryY=0.5;entryDx=0;entryDy=0;" edge="1" parent="1" source="5Vz4BSwYyrw7bR7G8Iut-23" target="5Vz4BSwYyrw7bR7G8Iut-8">
          <mxGeometry relative="1" as="geometry" />
        </mxCell>
        <mxCell id="CggY8DjCSY8ziIy-QMqM-7" value="Заказ обработан" style="text;html=1;align=center;verticalAlign=middle;resizable=0;points=[];autosize=1;strokeColor=none;fillColor=none;" vertex="1" parent="1">
          <mxGeometry x="1080" y="828" width="120" height="30" as="geometry" />
        </mxCell>
      </root>
    </mxGraphModel>
  </diagram>
</mxfile>
